<svg xmlns="http://www.w3.org/2000/svg" xmlns:xlink="http://www.w3.org/1999/xlink" width="72.94" height="72.94" viewBox="0 0 72.94 72.94"><defs><filter id="filter" x="1268.53" y="3672.53" width="72.94" height="72.94" filterUnits="userSpaceOnUse"><feFlood result="flood" flood-color="#03a9f4"/><feComposite result="composite" operator="in" in2="SourceGraphic"/><feBlend result="blend" in2="SourceGraphic"/></filter></defs><path id="Shape_21_copy" data-name="Shape 21 copy" d="M1279.19 3683.19l4.1-1 1.83-3.81 4.22-.11 2.58-3.35 4.15.76 3.22-2.74 3.9 1.62 3.72-2.02 3.49 2.39 4.05-1.19 2.91 3.06 4.21-.33 2.22 3.6 4.18.56 1.42 3.98 3.98 1.42.56 4.18 3.6 2.22-.33 4.21 3.06 2.91-1.19 4.05 2.39 3.49-2.02 3.71 1.62 3.91-2.74 3.22.76 4.15-3.35 2.58-.11 4.22-3.82 1.83-.99 4.1-4.1.99-1.83 3.82-4.22.11-2.58 3.35-4.15-.76-3.22 2.74-3.9-1.62-3.72 2.02-3.49-2.39-4.05 1.19-2.91-3.06-4.21.33-2.22-3.6-4.18-.56-1.42-3.98-3.98-1.42-.56-4.18-3.6-2.22.33-4.21-3.06-2.91 1.19-4.05-2.39-3.49 2.02-3.72-1.62-3.9 2.74-3.22-.76-4.15 3.35-2.58.11-4.22 3.81-1.83z" transform="translate(-1268.53 -3672.53)" fill="#13aeff" fill-rule="evenodd" filter="url(#filter)"/></svg>